<svg id="visual" viewBox="0 0 960 540" width="960" height="540" xmlns="http://www.w3.org/2000/svg" xmlns:xlink="http://www.w3.org/1999/xlink" version="1.1"><path d="M0 288L40 294.8C80 301.7 160 315.3 240 308C320 300.7 400 272.3 480 262C560 251.7 640 259.3 720 280.3C800 301.3 880 335.7 920 352.8L960 370L960 541L920 541C880 541 800 541 720 541C640 541 560 541 480 541C400 541 320 541 240 541C160 541 80 541 40 541L0 541Z" fill="#85b887"></path><path d="M0 268L40 280C80 292 160 316 240 339.2C320 362.3 400 384.7 480 378.2C560 371.7 640 336.3 720 317.7C800 299 880 297 920 296L960 295L960 541L920 541C880 541 800 541 720 541C640 541 560 541 480 541C400 541 320 541 240 541C160 541 80 541 40 541L0 541Z" fill="#7db584"></path><path d="M0 327L40 343C80 359 160 391 240 383.5C320 376 400 329 480 304.8C560 280.7 640 279.3 720 289.7C800 300 880 322 920 333L960 344L960 541L920 541C880 541 800 541 720 541C640 541 560 541 480 541C400 541 320 541 240 541C160 541 80 541 40 541L0 541Z" fill="#75b182"></path><path d="M0 406L40 395.7C80 385.3 160 364.7 240 352.3C320 340 400 336 480 329.2C560 322.3 640 312.7 720 311.2C800 309.7 880 316.3 920 319.7L960 323L960 541L920 541C880 541 800 541 720 541C640 541 560 541 480 541C400 541 320 541 240 541C160 541 80 541 40 541L0 541Z" fill="#6dae80"></path><path d="M0 345L40 343.3C80 341.7 160 338.3 240 349C320 359.7 400 384.3 480 399C560 413.7 640 418.3 720 415C800 411.7 880 400.3 920 394.7L960 389L960 541L920 541C880 541 800 541 720 541C640 541 560 541 480 541C400 541 320 541 240 541C160 541 80 541 40 541L0 541Z" fill="#64ab7e"></path><path d="M0 433L40 427.3C80 421.7 160 410.3 240 396.7C320 383 400 367 480 368.7C560 370.3 640 389.7 720 390.8C800 392 880 375 920 366.5L960 358L960 541L920 541C880 541 800 541 720 541C640 541 560 541 480 541C400 541 320 541 240 541C160 541 80 541 40 541L0 541Z" fill="#5ca87c"></path><path d="M0 451L40 449C80 447 160 443 240 439.5C320 436 400 433 480 429C560 425 640 420 720 418.8C800 417.7 880 420.3 920 421.7L960 423L960 541L920 541C880 541 800 541 720 541C640 541 560 541 480 541C400 541 320 541 240 541C160 541 80 541 40 541L0 541Z" fill="#52a47a"></path><path d="M0 415L40 411C80 407 160 399 240 406.3C320 413.7 400 436.3 480 447.5C560 458.7 640 458.3 720 447.5C800 436.7 880 415.3 920 404.7L960 394L960 541L920 541C880 541 800 541 720 541C640 541 560 541 480 541C400 541 320 541 240 541C160 541 80 541 40 541L0 541Z" fill="#48a178"></path><path d="M0 487L40 486.7C80 486.3 160 485.7 240 480.8C320 476 400 467 480 468.7C560 470.3 640 482.7 720 484.3C800 486 880 477 920 472.5L960 468L960 541L920 541C880 541 800 541 720 541C640 541 560 541 480 541C400 541 320 541 240 541C160 541 80 541 40 541L0 541Z" fill="#3d9e77"></path><path d="M0 442L40 444.2C80 446.3 160 450.7 240 460.7C320 470.7 400 486.3 480 491C560 495.7 640 489.3 720 481.8C800 474.3 880 465.7 920 461.3L960 457L960 541L920 541C880 541 800 541 720 541C640 541 560 541 480 541C400 541 320 541 240 541C160 541 80 541 40 541L0 541Z" fill="#309b75"></path><path d="M0 469L40 473.5C80 478 160 487 240 496.2C320 505.3 400 514.7 480 519.3C560 524 640 524 720 519.8C800 515.7 880 507.3 920 503.2L960 499L960 541L920 541C880 541 800 541 720 541C640 541 560 541 480 541C400 541 320 541 240 541C160 541 80 541 40 541L0 541Z" fill="#209774"></path><path d="M0 490L40 493.8C80 497.7 160 505.3 240 510.5C320 515.7 400 518.3 480 516C560 513.7 640 506.3 720 509.3C800 512.3 880 525.7 920 532.3L960 539L960 541L920 541C880 541 800 541 720 541C640 541 560 541 480 541C400 541 320 541 240 541C160 541 80 541 40 541L0 541Z" fill="#009473"></path></svg>